<mxfile host="app.diagrams.net" modified="2021-06-18T00:02:33.059Z" agent="5.0 (Macintosh; Intel Mac OS X 10_14_6) AppleWebKit/605.1.15 (KHTML, like Gecko) Version/14.0.3 Safari/605.1.15" etag="yfN87cblWR1GoxiJ9h5Q" version="14.8.0" type="github">
  <diagram id="6FSRVtxVRcEEBNHckEEs" name="Page-1">
    <mxGraphModel dx="1186" dy="723" grid="1" gridSize="10" guides="1" tooltips="1" connect="1" arrows="1" fold="1" page="1" pageScale="1" pageWidth="850" pageHeight="1100" background="none" math="0" shadow="0">
      <root>
        <mxCell id="0" />
        <mxCell id="1" parent="0" />
        <mxCell id="2F-gl6-apiIcSs8wgxTY-1" value="" style="rounded=1;whiteSpace=wrap;html=1;" parent="1" vertex="1">
          <mxGeometry x="110" y="360" width="50" height="40" as="geometry" />
        </mxCell>
        <mxCell id="2F-gl6-apiIcSs8wgxTY-10" value="" style="edgeStyle=orthogonalEdgeStyle;rounded=0;orthogonalLoop=1;jettySize=auto;html=1;exitX=0.5;exitY=0;exitDx=0;exitDy=0;" parent="1" source="2F-gl6-apiIcSs8wgxTY-25" target="2F-gl6-apiIcSs8wgxTY-1" edge="1">
          <mxGeometry relative="1" as="geometry">
            <mxPoint x="150" y="430" as="sourcePoint" />
          </mxGeometry>
        </mxCell>
        <mxCell id="2F-gl6-apiIcSs8wgxTY-7" value="" style="endArrow=none;dashed=1;html=1;dashPattern=1 3;strokeWidth=2;fillColor=#dae8fc;strokeColor=#6c8ebf;" parent="1" edge="1">
          <mxGeometry width="50" height="50" relative="1" as="geometry">
            <mxPoint x="320" y="410" as="sourcePoint" />
            <mxPoint x="320" y="350" as="targetPoint" />
          </mxGeometry>
        </mxCell>
        <mxCell id="2F-gl6-apiIcSs8wgxTY-8" value="" style="endArrow=none;dashed=1;html=1;dashPattern=1 3;strokeWidth=2;" parent="1" edge="1">
          <mxGeometry width="50" height="50" relative="1" as="geometry">
            <mxPoint x="320" y="350" as="sourcePoint" />
            <mxPoint x="10" y="350" as="targetPoint" />
            <Array as="points">
              <mxPoint x="240" y="350" />
            </Array>
          </mxGeometry>
        </mxCell>
        <mxCell id="2F-gl6-apiIcSs8wgxTY-14" value="" style="endArrow=none;dashed=1;html=1;dashPattern=1 3;strokeWidth=2;" parent="1" edge="1">
          <mxGeometry width="50" height="50" relative="1" as="geometry">
            <mxPoint x="320" y="410" as="sourcePoint" />
            <mxPoint x="10" y="410" as="targetPoint" />
          </mxGeometry>
        </mxCell>
        <mxCell id="2F-gl6-apiIcSs8wgxTY-15" value="" style="endArrow=none;dashed=1;html=1;dashPattern=1 3;strokeWidth=2;" parent="1" edge="1">
          <mxGeometry width="50" height="50" relative="1" as="geometry">
            <mxPoint x="10" y="410" as="sourcePoint" />
            <mxPoint x="10" y="350" as="targetPoint" />
            <Array as="points">
              <mxPoint x="10" y="380" />
            </Array>
          </mxGeometry>
        </mxCell>
        <mxCell id="2F-gl6-apiIcSs8wgxTY-24" value="Encoder" style="text;html=1;strokeColor=none;fillColor=none;align=center;verticalAlign=middle;whiteSpace=wrap;rounded=0;" parent="1" vertex="1">
          <mxGeometry x="20" y="370" width="80" height="20" as="geometry" />
        </mxCell>
        <mxCell id="2F-gl6-apiIcSs8wgxTY-25" value="" style="rounded=1;whiteSpace=wrap;html=1;" parent="1" vertex="1">
          <mxGeometry x="110" y="430" width="50" height="40" as="geometry" />
        </mxCell>
        <mxCell id="2F-gl6-apiIcSs8wgxTY-28" value="" style="edgeStyle=orthogonalEdgeStyle;rounded=0;orthogonalLoop=1;jettySize=auto;html=1;" parent="1" target="2F-gl6-apiIcSs8wgxTY-25" edge="1">
          <mxGeometry relative="1" as="geometry">
            <mxPoint x="135" y="500" as="sourcePoint" />
          </mxGeometry>
        </mxCell>
        <mxCell id="2F-gl6-apiIcSs8wgxTY-31" value="" style="endArrow=none;dashed=1;html=1;dashPattern=1 3;strokeWidth=2;fillColor=#dae8fc;strokeColor=#6c8ebf;" parent="1" edge="1">
          <mxGeometry width="50" height="50" relative="1" as="geometry">
            <mxPoint x="320" y="480" as="sourcePoint" />
            <mxPoint x="320" y="420" as="targetPoint" />
          </mxGeometry>
        </mxCell>
        <mxCell id="2F-gl6-apiIcSs8wgxTY-32" value="" style="endArrow=none;dashed=1;html=1;dashPattern=1 3;strokeWidth=2;" parent="1" edge="1">
          <mxGeometry width="50" height="50" relative="1" as="geometry">
            <mxPoint x="320" y="420" as="sourcePoint" />
            <mxPoint x="10" y="420" as="targetPoint" />
            <Array as="points">
              <mxPoint x="240" y="420" />
            </Array>
          </mxGeometry>
        </mxCell>
        <mxCell id="2F-gl6-apiIcSs8wgxTY-33" value="" style="endArrow=none;dashed=1;html=1;dashPattern=1 3;strokeWidth=2;" parent="1" edge="1">
          <mxGeometry width="50" height="50" relative="1" as="geometry">
            <mxPoint x="320" y="480" as="sourcePoint" />
            <mxPoint x="10" y="480" as="targetPoint" />
          </mxGeometry>
        </mxCell>
        <mxCell id="2F-gl6-apiIcSs8wgxTY-34" value="" style="endArrow=none;dashed=1;html=1;dashPattern=1 3;strokeWidth=2;" parent="1" edge="1">
          <mxGeometry width="50" height="50" relative="1" as="geometry">
            <mxPoint x="10" y="480" as="sourcePoint" />
            <mxPoint x="10" y="420" as="targetPoint" />
            <Array as="points">
              <mxPoint x="10" y="450" />
            </Array>
          </mxGeometry>
        </mxCell>
        <mxCell id="2F-gl6-apiIcSs8wgxTY-35" value="Embed" style="text;html=1;strokeColor=none;fillColor=none;align=center;verticalAlign=middle;whiteSpace=wrap;rounded=0;" parent="1" vertex="1">
          <mxGeometry x="20" y="440" width="80" height="20" as="geometry" />
        </mxCell>
        <mxCell id="raFE9WvMCpzrq_xkpyY--26" value="" style="rounded=1;whiteSpace=wrap;html=1;" parent="1" vertex="1">
          <mxGeometry x="180" y="360" width="50" height="40" as="geometry" />
        </mxCell>
        <mxCell id="raFE9WvMCpzrq_xkpyY--27" value="" style="edgeStyle=orthogonalEdgeStyle;rounded=0;orthogonalLoop=1;jettySize=auto;html=1;exitX=0.5;exitY=0;exitDx=0;exitDy=0;" parent="1" source="raFE9WvMCpzrq_xkpyY--28" target="raFE9WvMCpzrq_xkpyY--26" edge="1">
          <mxGeometry relative="1" as="geometry">
            <mxPoint x="220" y="430" as="sourcePoint" />
          </mxGeometry>
        </mxCell>
        <mxCell id="raFE9WvMCpzrq_xkpyY--28" value="" style="rounded=1;whiteSpace=wrap;html=1;" parent="1" vertex="1">
          <mxGeometry x="180" y="430" width="50" height="40" as="geometry" />
        </mxCell>
        <mxCell id="raFE9WvMCpzrq_xkpyY--29" value="" style="edgeStyle=orthogonalEdgeStyle;rounded=0;orthogonalLoop=1;jettySize=auto;html=1;" parent="1" target="raFE9WvMCpzrq_xkpyY--28" edge="1">
          <mxGeometry relative="1" as="geometry">
            <mxPoint x="205" y="500" as="sourcePoint" />
          </mxGeometry>
        </mxCell>
        <mxCell id="raFE9WvMCpzrq_xkpyY--30" value="" style="rounded=1;whiteSpace=wrap;html=1;" parent="1" vertex="1">
          <mxGeometry x="250" y="360" width="50" height="40" as="geometry" />
        </mxCell>
        <mxCell id="raFE9WvMCpzrq_xkpyY--31" value="" style="edgeStyle=orthogonalEdgeStyle;rounded=0;orthogonalLoop=1;jettySize=auto;html=1;exitX=0.5;exitY=0;exitDx=0;exitDy=0;" parent="1" source="raFE9WvMCpzrq_xkpyY--32" target="raFE9WvMCpzrq_xkpyY--30" edge="1">
          <mxGeometry relative="1" as="geometry">
            <mxPoint x="290" y="430" as="sourcePoint" />
          </mxGeometry>
        </mxCell>
        <mxCell id="raFE9WvMCpzrq_xkpyY--32" value="" style="rounded=1;whiteSpace=wrap;html=1;" parent="1" vertex="1">
          <mxGeometry x="250" y="430" width="50" height="40" as="geometry" />
        </mxCell>
        <mxCell id="raFE9WvMCpzrq_xkpyY--33" value="" style="edgeStyle=orthogonalEdgeStyle;rounded=0;orthogonalLoop=1;jettySize=auto;html=1;" parent="1" target="raFE9WvMCpzrq_xkpyY--32" edge="1">
          <mxGeometry relative="1" as="geometry">
            <mxPoint x="275" y="500" as="sourcePoint" />
          </mxGeometry>
        </mxCell>
        <mxCell id="raFE9WvMCpzrq_xkpyY--34" value="" style="endArrow=classic;html=1;exitX=1;exitY=0.5;exitDx=0;exitDy=0;entryX=0;entryY=0.5;entryDx=0;entryDy=0;" parent="1" source="2F-gl6-apiIcSs8wgxTY-1" target="raFE9WvMCpzrq_xkpyY--26" edge="1">
          <mxGeometry width="50" height="50" relative="1" as="geometry">
            <mxPoint x="400" y="570" as="sourcePoint" />
            <mxPoint x="450" y="520" as="targetPoint" />
          </mxGeometry>
        </mxCell>
        <mxCell id="raFE9WvMCpzrq_xkpyY--36" value="" style="endArrow=classic;html=1;exitX=1;exitY=0.5;exitDx=0;exitDy=0;entryX=0;entryY=0.5;entryDx=0;entryDy=0;" parent="1" source="raFE9WvMCpzrq_xkpyY--26" target="raFE9WvMCpzrq_xkpyY--30" edge="1">
          <mxGeometry width="50" height="50" relative="1" as="geometry">
            <mxPoint x="400" y="570" as="sourcePoint" />
            <mxPoint x="450" y="520" as="targetPoint" />
          </mxGeometry>
        </mxCell>
        <mxCell id="raFE9WvMCpzrq_xkpyY--37" value="" style="rounded=1;whiteSpace=wrap;html=1;" parent="1" vertex="1">
          <mxGeometry x="410" y="290" width="50" height="40" as="geometry" />
        </mxCell>
        <mxCell id="raFE9WvMCpzrq_xkpyY--38" value="" style="edgeStyle=orthogonalEdgeStyle;rounded=0;orthogonalLoop=1;jettySize=auto;html=1;exitX=0.5;exitY=0;exitDx=0;exitDy=0;" parent="1" source="raFE9WvMCpzrq_xkpyY--44" target="raFE9WvMCpzrq_xkpyY--37" edge="1">
          <mxGeometry relative="1" as="geometry">
            <mxPoint x="450" y="360" as="sourcePoint" />
          </mxGeometry>
        </mxCell>
        <mxCell id="raFE9WvMCpzrq_xkpyY--39" value="" style="endArrow=none;dashed=1;html=1;dashPattern=1 3;strokeWidth=2;fillColor=#dae8fc;strokeColor=#6c8ebf;" parent="1" edge="1">
          <mxGeometry width="50" height="50" relative="1" as="geometry">
            <mxPoint x="760" y="340" as="sourcePoint" />
            <mxPoint x="760" y="280" as="targetPoint" />
          </mxGeometry>
        </mxCell>
        <mxCell id="raFE9WvMCpzrq_xkpyY--40" value="" style="endArrow=none;dashed=1;html=1;dashPattern=1 3;strokeWidth=2;" parent="1" edge="1">
          <mxGeometry width="50" height="50" relative="1" as="geometry">
            <mxPoint x="760" y="280" as="sourcePoint" />
            <mxPoint x="390" y="280" as="targetPoint" />
            <Array as="points">
              <mxPoint x="620" y="280" />
            </Array>
          </mxGeometry>
        </mxCell>
        <mxCell id="raFE9WvMCpzrq_xkpyY--41" value="" style="endArrow=none;dashed=1;html=1;dashPattern=1 3;strokeWidth=2;" parent="1" edge="1">
          <mxGeometry width="50" height="50" relative="1" as="geometry">
            <mxPoint x="760" y="340" as="sourcePoint" />
            <mxPoint x="390" y="340" as="targetPoint" />
          </mxGeometry>
        </mxCell>
        <mxCell id="raFE9WvMCpzrq_xkpyY--42" value="" style="endArrow=none;dashed=1;html=1;dashPattern=1 3;strokeWidth=2;" parent="1" edge="1">
          <mxGeometry width="50" height="50" relative="1" as="geometry">
            <mxPoint x="390" y="340" as="sourcePoint" />
            <mxPoint x="390" y="280" as="targetPoint" />
            <Array as="points">
              <mxPoint x="390" y="310" />
            </Array>
          </mxGeometry>
        </mxCell>
        <mxCell id="raFE9WvMCpzrq_xkpyY--44" value="" style="rounded=1;whiteSpace=wrap;html=1;" parent="1" vertex="1">
          <mxGeometry x="410" y="360" width="50" height="40" as="geometry" />
        </mxCell>
        <mxCell id="raFE9WvMCpzrq_xkpyY--45" value="" style="edgeStyle=orthogonalEdgeStyle;rounded=0;orthogonalLoop=1;jettySize=auto;html=1;" parent="1" target="raFE9WvMCpzrq_xkpyY--44" edge="1">
          <mxGeometry relative="1" as="geometry">
            <mxPoint x="435" y="430" as="sourcePoint" />
          </mxGeometry>
        </mxCell>
        <mxCell id="raFE9WvMCpzrq_xkpyY--46" value="" style="endArrow=none;dashed=1;html=1;dashPattern=1 3;strokeWidth=2;fillColor=#dae8fc;strokeColor=#6c8ebf;" parent="1" edge="1">
          <mxGeometry width="50" height="50" relative="1" as="geometry">
            <mxPoint x="760" y="410" as="sourcePoint" />
            <mxPoint x="760" y="350" as="targetPoint" />
          </mxGeometry>
        </mxCell>
        <mxCell id="raFE9WvMCpzrq_xkpyY--47" value="" style="endArrow=none;dashed=1;html=1;dashPattern=1 3;strokeWidth=2;" parent="1" edge="1">
          <mxGeometry width="50" height="50" relative="1" as="geometry">
            <mxPoint x="760" y="350" as="sourcePoint" />
            <mxPoint x="390" y="350" as="targetPoint" />
            <Array as="points">
              <mxPoint x="620" y="350" />
            </Array>
          </mxGeometry>
        </mxCell>
        <mxCell id="raFE9WvMCpzrq_xkpyY--48" value="" style="endArrow=none;dashed=1;html=1;dashPattern=1 3;strokeWidth=2;" parent="1" edge="1">
          <mxGeometry width="50" height="50" relative="1" as="geometry">
            <mxPoint x="760" y="410" as="sourcePoint" />
            <mxPoint x="390" y="410" as="targetPoint" />
          </mxGeometry>
        </mxCell>
        <mxCell id="raFE9WvMCpzrq_xkpyY--49" value="" style="endArrow=none;dashed=1;html=1;dashPattern=1 3;strokeWidth=2;" parent="1" edge="1">
          <mxGeometry width="50" height="50" relative="1" as="geometry">
            <mxPoint x="390" y="410" as="sourcePoint" />
            <mxPoint x="390" y="350" as="targetPoint" />
            <Array as="points">
              <mxPoint x="390" y="380" />
            </Array>
          </mxGeometry>
        </mxCell>
        <mxCell id="raFE9WvMCpzrq_xkpyY--51" value="" style="rounded=1;whiteSpace=wrap;html=1;" parent="1" vertex="1">
          <mxGeometry x="480" y="290" width="50" height="40" as="geometry" />
        </mxCell>
        <mxCell id="raFE9WvMCpzrq_xkpyY--52" value="" style="edgeStyle=orthogonalEdgeStyle;rounded=0;orthogonalLoop=1;jettySize=auto;html=1;exitX=0.5;exitY=0;exitDx=0;exitDy=0;" parent="1" source="raFE9WvMCpzrq_xkpyY--53" target="raFE9WvMCpzrq_xkpyY--51" edge="1">
          <mxGeometry relative="1" as="geometry">
            <mxPoint x="520" y="360" as="sourcePoint" />
          </mxGeometry>
        </mxCell>
        <mxCell id="raFE9WvMCpzrq_xkpyY--53" value="" style="rounded=1;whiteSpace=wrap;html=1;" parent="1" vertex="1">
          <mxGeometry x="480" y="360" width="50" height="40" as="geometry" />
        </mxCell>
        <mxCell id="raFE9WvMCpzrq_xkpyY--54" value="" style="edgeStyle=orthogonalEdgeStyle;rounded=0;orthogonalLoop=1;jettySize=auto;html=1;" parent="1" target="raFE9WvMCpzrq_xkpyY--53" edge="1">
          <mxGeometry relative="1" as="geometry">
            <mxPoint x="505" y="430" as="sourcePoint" />
          </mxGeometry>
        </mxCell>
        <mxCell id="raFE9WvMCpzrq_xkpyY--55" value="" style="rounded=1;whiteSpace=wrap;html=1;" parent="1" vertex="1">
          <mxGeometry x="550" y="290" width="50" height="40" as="geometry" />
        </mxCell>
        <mxCell id="raFE9WvMCpzrq_xkpyY--56" value="" style="edgeStyle=orthogonalEdgeStyle;rounded=0;orthogonalLoop=1;jettySize=auto;html=1;exitX=0.5;exitY=0;exitDx=0;exitDy=0;" parent="1" source="raFE9WvMCpzrq_xkpyY--57" target="raFE9WvMCpzrq_xkpyY--55" edge="1">
          <mxGeometry relative="1" as="geometry">
            <mxPoint x="590" y="360" as="sourcePoint" />
          </mxGeometry>
        </mxCell>
        <mxCell id="raFE9WvMCpzrq_xkpyY--57" value="" style="rounded=1;whiteSpace=wrap;html=1;" parent="1" vertex="1">
          <mxGeometry x="550" y="360" width="50" height="40" as="geometry" />
        </mxCell>
        <mxCell id="raFE9WvMCpzrq_xkpyY--58" value="" style="edgeStyle=orthogonalEdgeStyle;rounded=0;orthogonalLoop=1;jettySize=auto;html=1;" parent="1" target="raFE9WvMCpzrq_xkpyY--57" edge="1">
          <mxGeometry relative="1" as="geometry">
            <mxPoint x="575" y="430" as="sourcePoint" />
          </mxGeometry>
        </mxCell>
        <mxCell id="raFE9WvMCpzrq_xkpyY--62" value="" style="rounded=1;whiteSpace=wrap;html=1;" parent="1" vertex="1">
          <mxGeometry x="620" y="290" width="50" height="40" as="geometry" />
        </mxCell>
        <mxCell id="raFE9WvMCpzrq_xkpyY--63" value="" style="edgeStyle=orthogonalEdgeStyle;rounded=0;orthogonalLoop=1;jettySize=auto;html=1;exitX=0.5;exitY=0;exitDx=0;exitDy=0;" parent="1" source="raFE9WvMCpzrq_xkpyY--64" target="raFE9WvMCpzrq_xkpyY--62" edge="1">
          <mxGeometry relative="1" as="geometry">
            <mxPoint x="660" y="360" as="sourcePoint" />
          </mxGeometry>
        </mxCell>
        <mxCell id="raFE9WvMCpzrq_xkpyY--64" value="" style="rounded=1;whiteSpace=wrap;html=1;" parent="1" vertex="1">
          <mxGeometry x="620" y="360" width="50" height="40" as="geometry" />
        </mxCell>
        <mxCell id="raFE9WvMCpzrq_xkpyY--65" value="" style="edgeStyle=orthogonalEdgeStyle;rounded=0;orthogonalLoop=1;jettySize=auto;html=1;" parent="1" target="raFE9WvMCpzrq_xkpyY--64" edge="1">
          <mxGeometry relative="1" as="geometry">
            <mxPoint x="645" y="430" as="sourcePoint" />
          </mxGeometry>
        </mxCell>
        <mxCell id="raFE9WvMCpzrq_xkpyY--67" value="Decoder" style="text;html=1;strokeColor=none;fillColor=none;align=center;verticalAlign=middle;whiteSpace=wrap;rounded=0;" parent="1" vertex="1">
          <mxGeometry x="680" y="370" width="80" height="20" as="geometry" />
        </mxCell>
        <mxCell id="raFE9WvMCpzrq_xkpyY--68" value="" style="endArrow=classic;html=1;exitX=1;exitY=0.5;exitDx=0;exitDy=0;entryX=0;entryY=0.5;entryDx=0;entryDy=0;" parent="1" source="raFE9WvMCpzrq_xkpyY--30" target="raFE9WvMCpzrq_xkpyY--44" edge="1">
          <mxGeometry width="50" height="50" relative="1" as="geometry">
            <mxPoint x="400" y="570" as="sourcePoint" />
            <mxPoint x="450" y="520" as="targetPoint" />
          </mxGeometry>
        </mxCell>
        <mxCell id="raFE9WvMCpzrq_xkpyY--69" value="" style="endArrow=classic;html=1;exitX=1;exitY=0.5;exitDx=0;exitDy=0;entryX=0;entryY=0.5;entryDx=0;entryDy=0;" parent="1" source="raFE9WvMCpzrq_xkpyY--44" target="raFE9WvMCpzrq_xkpyY--53" edge="1">
          <mxGeometry width="50" height="50" relative="1" as="geometry">
            <mxPoint x="400" y="570" as="sourcePoint" />
            <mxPoint x="450" y="520" as="targetPoint" />
          </mxGeometry>
        </mxCell>
        <mxCell id="raFE9WvMCpzrq_xkpyY--70" value="" style="endArrow=classic;html=1;exitX=1;exitY=0.5;exitDx=0;exitDy=0;entryX=0;entryY=0.5;entryDx=0;entryDy=0;" parent="1" source="raFE9WvMCpzrq_xkpyY--53" target="raFE9WvMCpzrq_xkpyY--57" edge="1">
          <mxGeometry width="50" height="50" relative="1" as="geometry">
            <mxPoint x="400" y="570" as="sourcePoint" />
            <mxPoint x="450" y="520" as="targetPoint" />
          </mxGeometry>
        </mxCell>
        <mxCell id="raFE9WvMCpzrq_xkpyY--71" value="" style="endArrow=classic;html=1;entryX=0;entryY=0.5;entryDx=0;entryDy=0;exitX=1;exitY=0.5;exitDx=0;exitDy=0;" parent="1" source="raFE9WvMCpzrq_xkpyY--57" target="raFE9WvMCpzrq_xkpyY--64" edge="1">
          <mxGeometry width="50" height="50" relative="1" as="geometry">
            <mxPoint x="400" y="570" as="sourcePoint" />
            <mxPoint x="450" y="520" as="targetPoint" />
          </mxGeometry>
        </mxCell>
        <mxCell id="raFE9WvMCpzrq_xkpyY--72" value="" style="endArrow=classic;html=1;exitX=0.5;exitY=0;exitDx=0;exitDy=0;" parent="1" source="raFE9WvMCpzrq_xkpyY--37" edge="1">
          <mxGeometry width="50" height="50" relative="1" as="geometry">
            <mxPoint x="400" y="570" as="sourcePoint" />
            <mxPoint x="435" y="260" as="targetPoint" />
          </mxGeometry>
        </mxCell>
        <mxCell id="raFE9WvMCpzrq_xkpyY--73" value="Softmax" style="text;html=1;strokeColor=none;fillColor=none;align=center;verticalAlign=middle;whiteSpace=wrap;rounded=0;" parent="1" vertex="1">
          <mxGeometry x="680" y="300" width="80" height="20" as="geometry" />
        </mxCell>
        <mxCell id="raFE9WvMCpzrq_xkpyY--74" value="" style="endArrow=classic;html=1;exitX=0.5;exitY=0;exitDx=0;exitDy=0;" parent="1" source="raFE9WvMCpzrq_xkpyY--51" edge="1">
          <mxGeometry width="50" height="50" relative="1" as="geometry">
            <mxPoint x="400" y="570" as="sourcePoint" />
            <mxPoint x="505" y="260" as="targetPoint" />
          </mxGeometry>
        </mxCell>
        <mxCell id="raFE9WvMCpzrq_xkpyY--75" value="" style="endArrow=classic;html=1;exitX=0.5;exitY=0;exitDx=0;exitDy=0;" parent="1" source="raFE9WvMCpzrq_xkpyY--55" edge="1">
          <mxGeometry width="50" height="50" relative="1" as="geometry">
            <mxPoint x="400" y="570" as="sourcePoint" />
            <mxPoint x="575" y="260" as="targetPoint" />
          </mxGeometry>
        </mxCell>
        <mxCell id="raFE9WvMCpzrq_xkpyY--76" value="" style="endArrow=classic;html=1;exitX=0.5;exitY=0;exitDx=0;exitDy=0;" parent="1" source="raFE9WvMCpzrq_xkpyY--62" edge="1">
          <mxGeometry width="50" height="50" relative="1" as="geometry">
            <mxPoint x="400" y="570" as="sourcePoint" />
            <mxPoint x="645" y="260" as="targetPoint" />
          </mxGeometry>
        </mxCell>
        <mxCell id="grCR3YSzsjZ9s8liv35b-1" value="hello" style="text;html=1;strokeColor=none;fillColor=none;align=center;verticalAlign=middle;whiteSpace=wrap;rounded=0;" vertex="1" parent="1">
          <mxGeometry x="110" y="500" width="40" height="20" as="geometry" />
        </mxCell>
        <mxCell id="grCR3YSzsjZ9s8liv35b-2" value="world" style="text;html=1;strokeColor=none;fillColor=none;align=center;verticalAlign=middle;whiteSpace=wrap;rounded=0;" vertex="1" parent="1">
          <mxGeometry x="185" y="500" width="40" height="20" as="geometry" />
        </mxCell>
        <mxCell id="grCR3YSzsjZ9s8liv35b-3" value="." style="text;html=1;strokeColor=none;fillColor=none;align=center;verticalAlign=middle;whiteSpace=wrap;rounded=0;" vertex="1" parent="1">
          <mxGeometry x="255" y="500" width="40" height="20" as="geometry" />
        </mxCell>
        <mxCell id="grCR3YSzsjZ9s8liv35b-4" value="START" style="text;html=1;strokeColor=none;fillColor=none;align=center;verticalAlign=middle;whiteSpace=wrap;rounded=0;" vertex="1" parent="1">
          <mxGeometry x="415" y="430" width="40" height="20" as="geometry" />
        </mxCell>
        <mxCell id="grCR3YSzsjZ9s8liv35b-6" value="pozdrav" style="text;html=1;strokeColor=none;fillColor=none;align=center;verticalAlign=middle;whiteSpace=wrap;rounded=0;" vertex="1" parent="1">
          <mxGeometry x="485" y="430" width="40" height="20" as="geometry" />
        </mxCell>
        <mxCell id="grCR3YSzsjZ9s8liv35b-7" value="svijete" style="text;html=1;strokeColor=none;fillColor=none;align=center;verticalAlign=middle;whiteSpace=wrap;rounded=0;" vertex="1" parent="1">
          <mxGeometry x="555" y="430" width="40" height="20" as="geometry" />
        </mxCell>
        <mxCell id="grCR3YSzsjZ9s8liv35b-8" value="." style="text;html=1;strokeColor=none;fillColor=none;align=center;verticalAlign=middle;whiteSpace=wrap;rounded=0;" vertex="1" parent="1">
          <mxGeometry x="625" y="430" width="40" height="20" as="geometry" />
        </mxCell>
        <mxCell id="grCR3YSzsjZ9s8liv35b-9" value="pozdrav" style="text;html=1;strokeColor=none;fillColor=none;align=center;verticalAlign=middle;whiteSpace=wrap;rounded=0;" vertex="1" parent="1">
          <mxGeometry x="415" y="240" width="40" height="20" as="geometry" />
        </mxCell>
        <mxCell id="grCR3YSzsjZ9s8liv35b-10" value="svijete" style="text;html=1;strokeColor=none;fillColor=none;align=center;verticalAlign=middle;whiteSpace=wrap;rounded=0;" vertex="1" parent="1">
          <mxGeometry x="485" y="240" width="40" height="20" as="geometry" />
        </mxCell>
        <mxCell id="grCR3YSzsjZ9s8liv35b-11" value="." style="text;html=1;strokeColor=none;fillColor=none;align=center;verticalAlign=middle;whiteSpace=wrap;rounded=0;" vertex="1" parent="1">
          <mxGeometry x="555" y="240" width="40" height="20" as="geometry" />
        </mxCell>
        <mxCell id="grCR3YSzsjZ9s8liv35b-12" value="END" style="text;html=1;strokeColor=none;fillColor=none;align=center;verticalAlign=middle;whiteSpace=wrap;rounded=0;" vertex="1" parent="1">
          <mxGeometry x="625" y="240" width="40" height="20" as="geometry" />
        </mxCell>
        <mxCell id="grCR3YSzsjZ9s8liv35b-13" value="&lt;h1&gt;RNNs for translation&lt;/h1&gt;" style="text;html=1;strokeColor=none;fillColor=none;spacing=5;spacingTop=-20;whiteSpace=wrap;overflow=hidden;rounded=0;" vertex="1" parent="1">
          <mxGeometry x="310" y="70" width="190" height="120" as="geometry" />
        </mxCell>
      </root>
    </mxGraphModel>
  </diagram>
</mxfile>
